# xmcd CD database file
#
# Track frame offsets:
#	183
#	21708
#	48673
#	66228
#	86978
#	105833
#	128578
#	145063
#	168593
#	180515
#	195748
#	209413
#	222553
#	235085
#	254813
#	271993
#	289488
#	305255
#	324843
#
# Disc length: 4552 seconds
#
# Revision: 0
# Processed by: cddbd v1.5.2PL0 Copyright (c) Steve Scherf et al.
# Submitted via: CDex 1.51
#
DISCID=2911c613
DTITLE=VARIOUS ARTIST - IRELAND'S GREATEST HIT'S - IRELAND'S GREATEST HIT'S
DYEAR=1900
DGENRE=Country
TTITLE0=Grace
TTITLE1=Green Fields Of France
TTITLE2=A Bunch Of Thyme
TTITLE3=The Fields Of Athenry
TTITLE4=When You Were Sweet Sixteen
TTITLE5=Rare Oul' Times
TTITLE6=Maggie
TTITLE7=The Dutchman
TTITLE8=Summertime In Ireland
TTITLE9=One Day At A Time
TTITLE10=Four Country Roads
TTITLE11=When The Sun Says Goodbye To The Mountain
TTITLE12=The Way Old Friends Do
TTITLE13=The Old Rustic Bridge
TTITLE14=Tears On The Telephone
TTITLE15=It's You, It's You' It's You
TTITLE16=Belfast
TTITLE17=Limerick You're A Lady
TTITLE18=Show Some Concern
EXTD=
EXTT0=
EXTT1=
EXTT2=
EXTT3=
EXTT4=
EXTT5=
EXTT6=
EXTT7=
EXTT8=
EXTT9=
EXTT10=
EXTT11=
EXTT12=
EXTT13=
EXTT14=
EXTT15=
EXTT16=
EXTT17=
EXTT18=
PLAYORDER=
